PathFileType	4	(X/Y/Z)	/Users/itak/Documents/Research/Walk-IL/dataset/trc/00325_00011.trc
DataRate	CameraRate	NumFrames	NumMarkers	Units	OrigDataRate	OrigDataStartFrame	OrigNumFrames
100.000000	100.000000	4	54	mm	100.000000	378	433
Frame#	Time	RPSI			LPSI			L3			STRN			T10			C7			CLAV			RBAK			LBAK			LSHO			LUPA			LAEL			LAOL			LWPS			LFRA			LIFD			LHPS			LHTS			RSHO			RUPA			RAEL			RAOL			RWTS			RWPS			RFRA			RIFD			RHTS			RHPS			RBHD			LFHD			RFHD			LBHD			LHIP			RHIP			RASI			LASI			LKNE			LTHI			LANK			LTIP			LTOE			LMT1			LMT5			LHEE			RKNE			RANK			RTIP			RTOE			RMT1			RMT5			RHEE			LWTS			RTHI			*53			
		X1	Y1	Z1	X2	Y2	Z2	X3	Y3	Z3	X4	Y4	Z4	X5	Y5	Z5	X6	Y6	Z6	X7	Y7	Z7	X8	Y8	Z8	X9	Y9	Z9	X10	Y10	Z10	X11	Y11	Z11	X12	Y12	Z12	X13	Y13	Z13	X14	Y14	Z14	X15	Y15	Z15	X16	Y16	Z16	X17	Y17	Z17	X18	Y18	Z18	X19	Y19	Z19	X20	Y20	Z20	X21	Y21	Z21	X22	Y22	Z22	X23	Y23	Z23	X24	Y24	Z24	X25	Y25	Z25	X26	Y26	Z26	X27	Y27	Z27	X28	Y28	Z28	X29	Y29	Z29	X30	Y30	Z30	X31	Y31	Z31	X32	Y32	Z32	X33	Y33	Z33	X34	Y34	Z34	X35	Y35	Z35	X36	Y36	Z36	X37	Y37	Z37	X38	Y38	Z38	X39	Y39	Z39	X40	Y40	Z40	X41	Y41	Z41	X42	Y42	Z42	X43	Y43	Z43	X44	Y44	Z44	X45	Y45	Z45	X46	Y46	Z46	X47	Y47	Z47	X48	Y48	Z48	X49	Y49	Z49	X50	Y50	Z50	X51	Y51	Z51	X52	Y52	Z52	X53	Y53	Z53	X54	Y54	Z54	

379	3.78	806.5996704101562	965.31494140625	174.0948333740234	807.17822265625	967.1516723632812	45.0281867980957	803.4591064453125	1023.25244140625	112.0904159545898	1014.525512695312	1227.316650390625	101.0714874267578	778.9465942382812	1141.797119140625	100.3738250732422	798.2413940429688	1392.016967773438	77.12268829345703	960.207275390625	1348.286987304688	91.76535797119141	762.5079345703125	1251.363525390625	149.2386322021484	795.8582153320312	1351.903564453125	-23.23968505859375	883.6301879882812	1371.453979492188	-75.63993072509766	870.4408569335938	1249.97021484375	-139.0229949951172	885.1007080078125	1046.532836914062	-148.4172973632812	824.5811767578125	1034.879028320312	-89.51313018798828	928.6494750976562	789.498046875	-164.1927337646484	897.0233764648438	942.1651000976562	-156.8835754394531	957.5015869140625	638.2599487304688	-106.6237564086914	917.7871704101562	719.88525390625	-158.4828186035156	971.270751953125	714.9412231445312	-124.2086563110352	850.7760620117188	1388.486938476562	243.6654052734375	843.0056762695312	1325.675659179688	309.3213500976562	901.1826782226562	1067.409912109375	366.3585205078125	865.2939453125	1045.382202148438	282.2049255371094	1090.812255859375	906.058837890625	320.3612060546875	1065.357421875	873.1570434570312	384.5274658203125	947.2449340820312	1011.343933105469	378.7482299804688	1187.3017578125	763.1700439453125	327.36376953125	1163.412475585938	831.6248779296875	333.1565551757812	1117.927856445312	806.7957153320312	379.178955078125	823.0266723632812	1594.2138671875	158.4692230224609	984.9085693359375	1628.343383789062	31.21214294433594	979.0618286132812	1631.930297851562	132.0917510986328	805.2780151367188	1579.625	15.07703018188477	899.451904296875	917.2429809570312	-57.96446228027344	887.01318359375	912.7352905273438	283.5224609375	989.8778686523438	950.4811401367188	244.3560638427734	1013.786193847656	951.7186279296875	4.061863422393799	1023.715942382812	471.4803466796875	-42.32789993286133	1004.782958984375	605.47509765625	-53.50882720947266	790.7520141601562	91.96547698974609	-32.9378776550293	905.8370971679688	274.8940734863281	-51.77048492431641	996.4407348632812	52.67076873779297	3.374161720275879	931.2889404296875	49.1131591796875	51.75398635864258	909.4286499023438	63.55583190917969	-58.4991455078125	765.2667236328125	94.63868713378906	38.17660903930664	958.2415161132812	450.8795166015625	241.2693023681641	909.2307739257812	43.44899368286133	186.8097839355469	970.216064453125	331.9776306152344	222.2814178466797	1102.203125	30.40367889404297	131.5445251464844	1044.42041015625	29.33969879150391	90.37425994873047	1008.9365234375	28.63775444030762	203.3250579833984	858.81298828125	46.07108306884766	139.7770233154297	969.6458740234375	795.9522094726562	-108.9858474731445	975.3340454101562	709.9968872070312	276.9723815917969	nan	nan	nan	
380	3.79	810.010009765625	965.423095703125	173.3587188720703	811.107421875	967.2648315429688	44.33345413208008	807.39111328125	1022.8662109375	111.418701171875	1017.904907226562	1227.312255859375	101.2717742919922	782.444091796875	1141.39208984375	99.84194946289062	801.4500122070312	1391.752685546875	76.95171356201172	963.3779296875	1348.189453125	91.98711395263672	765.5592041015625	1250.843139648438	148.6621246337891	799.3997802734375	1351.770385742188	-23.30492973327637	887.1239013671875	1371.57861328125	-75.63439178466797	872.3622436523438	1250.391723632812	-139.2239837646484	883.635986328125	1046.63671875	-148.0741882324219	823.638427734375	1036.123168945312	-88.50832366943359	924.0693359375	788.8549194335938	-163.2239379882812	894.1154174804688	942.0899047851562	-156.2965850830078	951.9848022460938	637.6257934570312	-104.3109970092773	912.3994140625	719.3985595703125	-156.5553283691406	966.1265869140625	713.8099975585938	-122.7938613891602	853.3605346679688	1387.868408203125	243.6473846435547	845.6041259765625	1324.913330078125	309.1602783203125	907.1285400390625	1067.403076171875	366.6707763671875	871.3797607421875	1044.552856445312	282.9751586914062	1099.290649414062	909.691650390625	319.9545288085938	1074.558959960938	875.7357788085938	383.8552856445312	954.0542602539062	1012.056396484375	378.7941589355469	1199.296997070312	769.2556762695312	326.1497802734375	1173.570190429688	836.863037109375	332.4996948242188	1128.57275390625	810.3255004882812	377.79052734375	826.1651000976562	1594.084106445312	158.8380889892578	987.9833374023438	1628.30078125	31.54610633850098	982.1788940429688	1631.846923828125	132.4188079833984	808.3558959960938	1579.60693359375	15.44995212554932	902.9937133789062	917.0834350585938	-58.40396499633789	889.9959106445312	912.8189697265625	283.1432189941406	993.009765625	950.3937377929688	244.3229370117188	1017.868041992188	951.4739379882812	4.191391468048096	1025.64013671875	470.3546752929688	-41.98682403564453	1006.873474121094	605.0043334960938	-53.36608505249023	802.9931640625	85.10161590576172	-34.72508239746094	912.8775634765625	271.3007202148438	-52.46825790405273	1009.660949707031	53.49675369262695	4.114824771881104	943.9884033203125	47.63405990600586	51.70050048828125	923.0110473632812	61.10184478759766	-58.74065780639648	776.5205078125	86.86326599121094	36.13051605224609	959.7164306640625	450.8276977539062	241.2958221435547	909.23046875	43.454833984375	186.7862854003906	971.2534790039062	331.795166015625	222.3858642578125	1102.234130859375	30.40834999084473	131.5232238769531	1044.436889648438	29.35800361633301	90.41716766357422	1008.946533203125	28.64054870605469	203.32373046875	858.8035888671875	46.15066528320312	139.7770385742188	965.7225341796875	795.423583984375	-108.4521331787109	977.6439819335938	709.8840942382812	276.8632202148438	nan	nan	nan	
381	3.8	813.3619995117188	965.4979858398438	172.6092834472656	814.932373046875	967.3257446289062	43.61850738525391	811.099853515625	1022.449401855469	110.7153167724609	1021.157287597656	1227.241577148438	101.4390716552734	785.8811645507812	1140.943359375	99.18712615966797	804.5623779296875	1391.424438476562	76.68479156494141	966.4371337890625	1348.029296875	92.15232086181641	768.51220703125	1250.262329101562	147.9822692871094	802.8556518554688	1351.578002929688	-23.48601913452148	890.5609741210938	1371.641479492188	-75.70045471191406	874.370849609375	1250.799682617188	-139.5326843261719	882.4077758789062	1046.763061523438	-147.7917938232422	822.8135375976562	1037.353881835938	-87.71877288818359	919.8720703125	788.3233032226562	-162.2584991455078	891.4968872070312	942.0757446289062	-155.7533874511719	946.4547119140625	636.7114868164062	-101.6777877807617	907.3931884765625	719.0111694335938	-154.6885528564453	961.259765625	712.8038330078125	-121.281005859375	855.8060913085938	1387.198120117188	243.5485687255859	848.0633544921875	1324.08349609375	308.9166259765625	912.8440551757812	1067.342895507812	366.8272705078125	877.0732421875	1043.712646484375	283.47216796875	1107.2587890625	912.9832763671875	319.5084228515625	1083.166625976562	878.0505981445312	383.1633605957031	960.5706176757812	1012.678649902344	378.6916809082031	1210.399658203125	774.8403930664062	325.0217895507812	1183.009399414062	841.619384765625	331.8861999511719	1138.45361328125	813.5098266601562	376.4310607910156	829.1729736328125	1593.872314453125	159.1312408447266	990.9382934570312	1628.204711914062	31.83866691589355	985.1561889648438	1631.713012695312	132.6991271972656	811.3229370117188	1579.50244140625	15.75072002410889	906.5714111328125	916.81982421875	-58.81553268432617	892.92333984375	912.90234375	282.7478942871094	996.0905151367188	950.296630859375	244.2308197021484	1021.860656738281	951.1964721679688	4.240649223327637	1027.15966796875	469.1149291992188	-41.62438201904297	1008.6474609375	604.4185791015625	-53.20185470581055	814.9966430664062	78.53003692626953	-36.48249435424805	919.6129760742188	267.8160095214844	-53.14861297607422	1022.321411132812	54.26043701171875	4.88185977935791	956.1921997070312	46.16938018798828	51.68241882324219	936.141357421875	58.74792098999023	-58.94970703125	787.5744018554688	79.39207458496094	34.09423828125	961.1670532226562	450.7807006835938	241.3282928466797	909.228515625	43.45099258422852	186.7769622802734	972.2733764648438	331.6188354492188	222.481201171875	1102.264282226562	30.41681861877441	131.4883880615234	1044.44287109375	29.36251449584961	90.47499084472656	1008.952453613281	28.64378547668457	203.3253784179688	858.787841796875	46.21847534179688	139.7922821044922	961.97607421875	794.9611206054688	-107.7826309204102	979.901611328125	709.768798828125	276.7361145019531	nan	nan	nan	
382	3.81	816.650146484375	965.5485229492188	171.8392028808594	818.6599731445312	967.34375	42.87914657592773	814.637939453125	1022.002868652344	109.9810104370117	1024.280639648438	1227.11376953125	101.5653076171875	789.2385864257812	1140.46240234375	98.40948486328125	807.56787109375	1391.033935546875	76.31655883789062	969.3836669921875	1347.814453125	92.25289916992188	771.3921508789062	1249.629760742188	147.2180786132812	806.2192993164062	1351.335327148438	-23.78152275085449	893.9356079101562	1371.65283203125	-75.84003448486328	876.4810180664062	1251.194580078125	-139.9445037841797	881.456787109375	1046.911987304688	-147.5627288818359	822.1278076171875	1038.56884765625	-87.14196014404297	916.0455322265625	787.8976440429688	-161.2703857421875	889.2030639648438	942.1163940429688	-155.2464904785156	941.0116577148438	635.6765747070312	-98.91097259521484	902.7811279296875	718.7255859375	-152.9186706542969	956.684326171875	711.931640625	-119.6991348266602	858.12060546875	1386.492553710938	243.3651428222656	850.4054565429688	1323.201904296875	308.5870666503906	918.32470703125	1067.246826171875	366.8262634277344	882.4443969726562	1042.888549804688	283.7320861816406	1114.725463867188	915.913818359375	319.0108947753906	1091.1884765625	880.1124877929688	382.4515075683594	966.78857421875	1013.218933105469	378.4510803222656	1220.578002929688	779.8311767578125	323.9986572265625	1191.742431640625	845.8568115234375	331.3002319335938	1147.62158203125	816.4501342773438	375.2206420898438	832.0506591796875	1593.5888671875	159.3492736816406	993.779541015625	1628.05078125	32.08666610717773	988.0017700195312	1631.52197265625	132.9315643310547	814.1809692382812	1579.3212890625	15.97543430328369	910.1937866210938	916.4730224609375	-59.21123123168945	895.7906494140625	912.984375	282.3326721191406	999.1228637695312	950.1997680664062	244.0807037353516	1025.769897460938	950.9019775390625	4.197304725646973	1028.313842773438	467.79931640625	-41.24078750610352	1010.146423339844	603.731201171875	-53.02094268798828	826.6988525390625	72.3265380859375	-38.17695236206055	926.0447387695312	264.4737243652344	-53.79690551757812	1034.389282226562	54.89078903198242	5.64955472946167	967.8714599609375	44.68865966796875	51.69245147705078	948.7603759765625	56.49452590942383	-59.13140869140625	798.3798217773438	72.30808258056641	32.10477447509766	962.5929565429688	450.73193359375	241.3736267089844	909.223876953125	43.4375114440918	186.7818450927734	973.2653198242188	331.4522094726562	222.5617370605469	1102.291381835938	30.42753410339355	131.4448089599609	1044.434814453125	29.34366416931152	90.54718780517578	1008.951782226562	28.64350891113281	203.3303985595703	858.7745971679688	46.27373123168945	139.8198547363281	958.4234619140625	794.5453491210938	-106.9664840698242	982.1022338867188	709.6507568359375	276.5894165039062	nan	nan	nan	
